<svg width="67" height="67" viewBox="0 0 67 67" fill="none" xmlns="http://www.w3.org/2000/svg">
<path d="M16.75 10.05C13.0545 10.05 10.05 13.0546 10.05 16.75V50.2501C10.05 53.9455 13.0545 56.9501 16.75 56.9501H27.0303V41.6866H21.5028V33.5001H27.0303V29.9721C27.0303 20.8538 31.155 16.6244 40.1162 16.6244C41.8122 16.6244 44.7434 16.9594 45.9473 17.2944V24.7063C45.3192 24.6435 44.22 24.6016 42.8486 24.6016C38.4517 24.6016 36.7558 26.2661 36.7558 30.5897V33.5001H45.5076L44.0001 41.6866H36.7453V56.9501H50.25C53.9455 56.9501 56.95 53.9455 56.95 50.2501V16.75C56.95 13.0546 53.9455 10.05 50.25 10.05H16.75Z" fill="#BABABA"/>
</svg>
