<svg width="53" height="53" viewBox="0 0 53 53" fill="none" xmlns="http://www.w3.org/2000/svg">
<path fill-rule="evenodd" clip-rule="evenodd" d="M26.5 39.75C33.8178 39.75 39.75 33.8178 39.75 26.5C39.75 19.1822 33.8178 13.25 26.5 13.25C19.1822 13.25 13.25 19.1822 13.25 26.5C13.25 33.8178 19.1822 39.75 26.5 39.75ZM26.5 35.3333C31.3784 35.3333 35.3333 31.3784 35.3333 26.5C35.3333 21.6215 31.3784 17.6667 26.5 17.6667C21.6215 17.6667 17.6667 21.6215 17.6667 26.5C17.6667 31.3784 21.6215 35.3333 26.5 35.3333Z" fill="#BABABA"/>
<path d="M39.75 11.0417C38.5304 11.0417 37.5417 12.0305 37.5417 13.2501C37.5417 14.4697 38.5304 15.4584 39.75 15.4584C40.9697 15.4584 41.9584 14.4697 41.9584 13.2501C41.9584 12.0305 40.9697 11.0417 39.75 11.0417Z" fill="#BABABA"/>
<path fill-rule="evenodd" clip-rule="evenodd" d="M3.65251 9.44301C2.20834 12.2773 2.20834 15.9877 2.20834 23.4084V29.5917C2.20834 37.0124 2.20834 40.7228 3.65251 43.557C4.92283 46.0502 6.94981 48.0772 9.44298 49.3475C12.2773 50.7917 15.9877 50.7917 23.4083 50.7917H29.5917C37.0123 50.7917 40.7228 50.7917 43.557 49.3475C46.0502 48.0772 48.0772 46.0502 49.3474 43.557C50.7917 40.7228 50.7917 37.0124 50.7917 29.5917V23.4084C50.7917 15.9877 50.7917 12.2773 49.3474 9.44301C48.0772 6.94984 46.0502 4.92286 43.557 3.65254C40.7228 2.20837 37.0123 2.20837 29.5917 2.20837H23.4083C15.9877 2.20837 12.2773 2.20837 9.44298 3.65254C6.94981 4.92286 4.92283 6.94984 3.65251 9.44301ZM29.5917 6.62504H23.4083C19.6251 6.62504 17.0533 6.62849 15.0654 6.79089C13.1291 6.94909 12.1389 7.23584 11.4481 7.58781C9.786 8.4347 8.43467 9.78603 7.58778 11.4481C7.23581 12.1389 6.94906 13.1291 6.79086 15.0655C6.62846 17.0533 6.62501 19.6251 6.62501 23.4084V29.5917C6.62501 33.375 6.62846 35.9466 6.79086 37.9346C6.94906 39.8711 7.23581 40.8613 7.58778 41.552C8.43467 43.214 9.786 44.5653 11.4481 45.4122C12.1389 45.7642 13.1291 46.0511 15.0654 46.2092C17.0533 46.3715 19.6251 46.375 23.4083 46.375H29.5917C33.375 46.375 35.9466 46.3715 37.9345 46.2092C39.871 46.0511 40.8612 45.7642 41.552 45.4122C43.214 44.5653 44.5653 43.214 45.4122 41.552C45.7642 40.8613 46.0511 39.8711 46.2092 37.9346C46.3715 35.9466 46.375 33.375 46.375 29.5917V23.4084C46.375 19.6251 46.3715 17.0533 46.2092 15.0655C46.0511 13.1291 45.7642 12.1389 45.4122 11.4481C44.5653 9.78603 43.214 8.4347 41.552 7.58781C40.8612 7.23584 39.871 6.94909 37.9345 6.79089C35.9466 6.62849 33.375 6.62504 29.5917 6.62504Z" fill="#BABABA"/>
</svg>
