<svg width="65" height="65" viewBox="0 0 65 65" fill="none" xmlns="http://www.w3.org/2000/svg">
<path d="M19.1039 32.3578C19.1039 34.8867 19.8148 37.3547 21.1555 39.4773L21.4703 39.9852L20.1195 44.9211L25.1875 43.5906L25.675 43.8852C27.7266 45.1039 30.0828 45.7539 32.4898 45.7539H32.5C39.8734 45.7539 46.0383 39.7516 46.0383 32.368C46.0383 28.793 44.4945 25.4312 41.9656 22.9023C39.4266 20.3633 36.075 18.9719 32.5 18.9719C25.1164 18.9719 19.1141 24.9742 19.1039 32.3578ZM37.6594 40.0156C36.3797 40.2086 35.3844 40.107 32.8352 39.0102C29.0977 37.3953 26.5586 33.7797 26.0406 33.0484C26 32.9875 25.9695 32.957 25.9594 32.9367C25.7563 32.6727 24.3141 30.7531 24.3141 28.7727C24.3141 26.9039 25.2281 25.9391 25.6547 25.4922C25.6852 25.4617 25.7055 25.4414 25.7258 25.4109C26.0914 25.0047 26.5281 24.9031 26.8023 24.9031C27.0664 24.9031 27.3406 24.9031 27.5742 24.9133H27.6555C27.8891 24.9133 28.1836 24.9133 28.4781 25.6039C28.6 25.8984 28.7828 26.3453 28.9758 26.8023C29.3109 27.6148 29.6562 28.4578 29.7172 28.5898C29.8187 28.793 29.8898 29.0266 29.7477 29.2906C29.4023 29.9812 29.0469 30.3469 28.8031 30.6109C28.4883 30.9359 28.3461 31.0883 28.5695 31.4844C30.1234 34.1555 31.6773 35.0797 34.0437 36.268C34.45 36.4711 34.6836 36.4406 34.9172 36.1664C35.1508 35.9023 35.9227 34.9883 36.1867 34.5922C36.4508 34.1859 36.725 34.257 37.0906 34.3891C37.4562 34.5211 39.4367 35.4961 39.843 35.6992C39.9242 35.7398 39.9953 35.7703 40.0562 35.8008C40.3406 35.943 40.5336 36.0344 40.6148 36.1664C40.7062 36.3594 40.7062 37.1719 40.3711 38.1062C40.0359 39.0508 38.4312 39.9039 37.6594 40.0156ZM55.25 16.25C55.25 12.6648 52.3352 9.75 48.75 9.75H16.25C12.6648 9.75 9.75 12.6648 9.75 16.25V48.75C9.75 52.3352 12.6648 55.25 16.25 55.25H48.75C52.3352 55.25 55.25 52.3352 55.25 48.75V16.25ZM24.7914 46.5055L16.25 48.75L18.5352 40.4016C17.1234 37.9641 16.382 35.1914 16.382 32.3477C16.3922 23.4711 23.6133 16.25 32.4898 16.25C36.7961 16.25 40.8383 17.9258 43.8852 20.9727C46.9219 24.0195 48.75 28.0617 48.75 32.368C48.75 41.2445 41.3664 48.4656 32.4898 48.4656C29.7883 48.4656 27.1375 47.7852 24.7914 46.5055Z" fill="#BABABA"/>
</svg>
